HIERARCHY
ROOT Hips
{
  OFFSET 5.80788e-005 67.184 3.4734
  CHANNELS 6 Xposition Yposition Zposition Zrotation Xrotation Yrotation
  JOINT Chest
  {
    OFFSET 0 8.7983 -4.7612
    CHANNELS 3 Zrotation Xrotation Yrotation
    JOINT Chest2
    {
      OFFSET 0 8.0291 0.4195
      CHANNELS 3 Zrotation Xrotation Yrotation
      JOINT Chest3
      {
        OFFSET 0 9.9351 -2.2114
        CHANNELS 3 Zrotation Xrotation Yrotation
        JOINT Neck
        {
          OFFSET 0 22.3885 -0.4656
          CHANNELS 3 Zrotation Xrotation Yrotation
          JOINT Head
          {
            OFFSET -0.0001 12.643 3.4389
            CHANNELS 3 Zrotation Xrotation Yrotation
            End Site
            {
              OFFSET 0.0001 17.6655 0.5274
            }
          }
        }
        JOINT LeftCollar
        {
          OFFSET 2.2603 21.606 7.4023
          CHANNELS 3 Zrotation Xrotation Yrotation
          JOINT LeftShoulder
          {
            OFFSET 13.5163 -1.1332 -5.0146
            CHANNELS 3 Zrotation Xrotation Yrotation
            JOINT LeftElbow
            {
              OFFSET -0.0995 -28.05 -0.2431
              CHANNELS 3 Zrotation Xrotation Yrotation
              JOINT LeftWrist
              {
                OFFSET 0.0679 -23.3996 -0.1402
                CHANNELS 3 Zrotation Xrotation Yrotation
                JOINT LeftFinger1
                {
                  OFFSET 0.7932 -9.069 2.5189
                  CHANNELS 3 Zrotation Xrotation Yrotation
                  JOINT LeftFinger11
                  {
                    OFFSET -0.8272 -3.3923 0.5977
                    CHANNELS 3 Zrotation Xrotation Yrotation
                    JOINT LeftFinger12
                    {
                      OFFSET -0.5649 -2.3158 0.4082
                      CHANNELS 3 Zrotation Xrotation Yrotation
                      End Site
                      {
                        OFFSET -0.4919 -1.6479 0.2673
                      }
                    }
                  }
                }
                JOINT LeftFinger2
                {
                  OFFSET 0.9159 -9.2044 0.2193
                  CHANNELS 3 Zrotation Xrotation Yrotation
                  JOINT LeftFinger21
                  {
                    OFFSET 0.0117 -4.1944 -0.0248
                    CHANNELS 3 Zrotation Xrotation Yrotation
                    JOINT LeftFinger22
                    {
                      OFFSET 0.0071 -2.3249 -0.0142
                      CHANNELS 3 Zrotation Xrotation Yrotation
                      End Site
                      {
                        OFFSET -0.1475 -2.0882 0.0028
                      }
                    }
                  }
                }
                JOINT LeftFinger3
                {
                  OFFSET 0.6113 -8.7231 -2.0637
                  CHANNELS 3 Zrotation Xrotation Yrotation
                  JOINT LeftFinger31
                  {
                    OFFSET -0.1927 -3.8059 -0.2383
                    CHANNELS 3 Zrotation Xrotation Yrotation
                    JOINT LeftFinger32
                    {
                      OFFSET -0.1091 -2.1688 -0.1362
                      CHANNELS 3 Zrotation Xrotation Yrotation
                      End Site
                      {
                        OFFSET -0.2358 -1.9176 -0.0906
                      }
                    }
                  }
                }
                JOINT LeftFinger4
                {
                  OFFSET -0.6151 -8.0947 -3.5641
                  CHANNELS 3 Zrotation Xrotation Yrotation
                  JOINT LeftFinger41
                  {
                    OFFSET -0.4882 -2.341 -0.6462
                    CHANNELS 3 Zrotation Xrotation Yrotation
                    JOINT LeftFinger42
                    {
                      OFFSET -0.3575 -1.7167 -0.4742
                      CHANNELS 3 Zrotation Xrotation Yrotation
                      End Site
                      {
                        OFFSET -0.4187 -1.5237 -0.3496
                      }
                    }
                  }
                }
                JOINT LeftFinger0
                {
                  OFFSET -1.42 -1.8761 1.4223
                  CHANNELS 3 Zrotation Xrotation Yrotation
                  JOINT LeftFinger01
                  {
                    OFFSET -1.1471 -3.4929 2.6334
                    CHANNELS 3 Zrotation Xrotation Yrotation
                    JOINT LeftFinger02
                    {
                      OFFSET -0.823 -2.3 1.6571
                      CHANNELS 3 Zrotation Xrotation Yrotation
                      End Site
                      {
                        OFFSET -0.5822 -1.6914 1.1582
                      }
                    }
                  }
                }
              }
            }
          }
        }
        JOINT RightCollar
        {
          OFFSET -2.2603 21.606 7.4023
          CHANNELS 3 Zrotation Xrotation Yrotation
          JOINT RightShoulder
          {
            OFFSET -13.5187 -1.1334 -5.0155
            CHANNELS 3 Zrotation Xrotation Yrotation
            JOINT RightElbow
            {
              OFFSET 0.0994 -28.0499 -0.2431
              CHANNELS 3 Zrotation Xrotation Yrotation
              JOINT RightWrist
              {
                OFFSET -0.0679 -23.3996 -0.1402
                CHANNELS 3 Zrotation Xrotation Yrotation
                JOINT RightFinger1
                {
                  OFFSET -0.7932 -9.0691 2.5189
                  CHANNELS 3 Zrotation Xrotation Yrotation
                  JOINT RightFinger11
                  {
                    OFFSET 0.8272 -3.3923 0.5977
                    CHANNELS 3 Zrotation Xrotation Yrotation
                    JOINT RightFinger12
                    {
                      OFFSET 0.565 -2.3158 0.4082
                      CHANNELS 3 Zrotation Xrotation Yrotation
                      End Site
                      {
                        OFFSET 0.4919 -1.6479 0.2673
                      }
                    }
                  }
                }
                JOINT RightFinger2
                {
                  OFFSET -0.916 -9.2044 0.2193
                  CHANNELS 3 Zrotation Xrotation Yrotation
                  JOINT RightFinger21
                  {
                    OFFSET -0.0117 -4.1944 -0.0248
                    CHANNELS 3 Zrotation Xrotation Yrotation
                    JOINT RightFinger22
                    {
                      OFFSET -0.0071 -2.3249 -0.0142
                      CHANNELS 3 Zrotation Xrotation Yrotation
                      End Site
                      {
                        OFFSET 0.1475 -2.0882 0.0028
                      }
                    }
                  }
                }
                JOINT RightFinger3
                {
                  OFFSET -0.6113 -8.7231 -2.0637
                  CHANNELS 3 Zrotation Xrotation Yrotation
                  JOINT RightFinger31
                  {
                    OFFSET 0.1927 -3.8059 -0.2383
                    CHANNELS 3 Zrotation Xrotation Yrotation
                    JOINT RightFinger32
                    {
                      OFFSET 0.1091 -2.1688 -0.1362
                      CHANNELS 3 Zrotation Xrotation Yrotation
                      End Site
                      {
                        OFFSET 0.2358 -1.9176 -0.0906
                      }
                    }
                  }
                }
                JOINT RightFinger4
                {
                  OFFSET 0.6151 -8.0947 -3.564
                  CHANNELS 3 Zrotation Xrotation Yrotation
                  JOINT RightFinger41
                  {
                    OFFSET 0.4882 -2.341 -0.6462
                    CHANNELS 3 Zrotation Xrotation Yrotation
                    JOINT RightFinger42
                    {
                      OFFSET 0.3574 -1.7166 -0.4742
                      CHANNELS 3 Zrotation Xrotation Yrotation
                      End Site
                      {
                        OFFSET 0.4187 -1.5237 -0.3496
                      }
                    }
                  }
                }
                JOINT RightFinger0
                {
                  OFFSET 1.4199 -1.8761 1.4221
                  CHANNELS 3 Zrotation Xrotation Yrotation
                  JOINT RightFinger01
                  {
                    OFFSET 1.1472 -3.4929 2.6336
                    CHANNELS 3 Zrotation Xrotation Yrotation
                    JOINT RightFinger02
                    {
                      OFFSET 0.8229 -2.3 1.6571
                      CHANNELS 3 Zrotation Xrotation Yrotation
                      End Site
                      {
                        OFFSET 0.5822 -1.6914 1.1582
                      }
                    }
                  }
                }
              }
            }
          }
        }
      }
    }
  }
  JOINT RightHip
  {
    OFFSET -9.412 3.9771 -0.7758
    CHANNELS 3 Zrotation Xrotation Yrotation
    JOINT RightKnee
    {
      OFFSET -0.7531 -40.938 0
      CHANNELS 3 Zrotation Xrotation Yrotation
      JOINT RightAnkle
      {
        OFFSET 0 -40.1986 0
        CHANNELS 3 Zrotation Xrotation Yrotation
        JOINT RightToe
        {
          OFFSET 0 -4.4182 9.239
          CHANNELS 3 Zrotation Xrotation Yrotation
          End Site
          {
            OFFSET 0 0 6.1981
          }
        }
      }
    }
  }
  JOINT LeftHip
  {
    OFFSET 9.4119 3.9773 -0.7758
    CHANNELS 3 Zrotation Xrotation Yrotation
    JOINT LeftKnee
    {
      OFFSET 0.7532 -40.9383 0
      CHANNELS 3 Zrotation Xrotation Yrotation
      JOINT LeftAnkle
      {
        OFFSET 0 -40.1986 0
        CHANNELS 3 Zrotation Xrotation Yrotation
        JOINT LeftToe
        {
          OFFSET 0 -4.4182 9.239
          CHANNELS 3 Zrotation Xrotation Yrotation
          End Site
          {
            OFFSET 0 0 6.1981
          }
        }
      }
    }
  }
}
MOTION
Frames:	4
Frame Time:	0.0333333
5.80788e-005 67.184 3.4734 0 0 -0 0 0 -0 0 0 -0 0 0 -0 0 0 -0 0 0 -0 0 0 -12.5014 88.1196 14.2451 10.6914 -0.00160068 -0.00239207 0.000740045 -8.4365e-005 7.00714e-005 -9.52055e-007 9.93923e-017 -1.98785e-016 -1.59028e-015 9.93923e-017 -5.96354e-016 -1.59028e-015 -9.93923e-017 -5.96354e-016 -1.59028e-015 9.93923e-017 -1.98785e-016 -1.59028e-015 -0.0128176 0.00232552 8.52707e-005 9.93923e-017 5.96354e-016 -0 9.93923e-017 -1.98785e-016 -1.59028e-015 -0.0160551 0.00299681 0.000857156 -2.48481e-016 0 3.18055e-015 9.93923e-017 -1.98785e-016 -1.59028e-015 -0.0125865 0.0031206 0.00282719 0 1.98785e-016 -0 9.93923e-017 -1.98785e-016 -1.59028e-015 9.93923e-017 -5.96354e-016 -1.59028e-015 -9.93923e-017 -5.96354e-016 -1.59028e-015 -0.865644 0.16582 7.03859 -88.0329 10.2057 -10.5567 0.0015593 -0.00248883 -0.000788628 7.87605e-005 4.10553e-005 1.24965e-005 -3.97569e-016 -7.95139e-016 3.18055e-015 -1.98785e-016 -3.97569e-016 3.18055e-015 -1.98785e-016 0 3.18055e-015 -3.97569e-016 -7.95139e-016 3.18055e-015 0.0129473 0.00231697 -8.70038e-005 9.93923e-017 -7.95139e-016 1.59028e-015 -3.97569e-016 -7.95139e-016 3.18055e-015 0.0163314 0.00303369 -0.000872333 3.97569e-016 7.95139e-016 -3.18055e-015 -3.97569e-016 -7.95139e-016 3.18055e-015 0.0145763 0.00367772 -0.00326275 9.93923e-017 -3.97569e-016 -0 -3.97569e-016 -7.95139e-016 3.18055e-015 -1.98785e-016 -3.97569e-016 3.18055e-015 -1.98785e-016 0 3.18055e-015 3.42485 1.36937 -0.0640303 0.000136572 0.69354 0.00145564 -3.42573 -2.06297 -0.0607933 -3.19502e-024 0 -1.48106e-024 -3.42498 1.36123 0.0639712 -6.769e-005 0.712612 -0.0012277 3.42582 -2.07388 0.0612819 2.55305e-023 0 -2.31416e-026 
29.5174 64.0978 5.02903 6.30286e-008 0.0724288 6.58983e-008 -0.183762 3.02464 -0.0993226 -0.363026 6.04958 -0.189312 -0.363027 6.04959 -0.189312 -6.81917e-006 -0.555913 -3.69421e-006 -2.73121e-008 -0.454631 5.11881e-008 -5.9279 -0.14393 -12.5014 44.896 7.65636 19.3474 -3.65457 -18.916 -1.22794 -5.09895 0.931406 -0.116756 -1.49089e-016 0 7.95139e-016 -1.2424e-016 1.59028e-015 -9.93923e-016 -1.2424e-016 -1.59028e-015 -0 -1.49089e-016 0 7.95139e-016 -0.0128369 0.00233034 8.68352e-005 3.60297e-015 0 -0 -1.49089e-016 0 7.95139e-016 -0.0160174 0.00299221 0.000855632 -9.98893e-015 1.59028e-015 3.97569e-016 -1.49089e-016 0 7.95139e-016 -0.0126189 0.00313392 0.00283634 7.50412e-015 0 1.98785e-016 -1.49089e-016 0 7.95139e-016 -1.2424e-016 1.59028e-015 -9.93923e-016 -1.2424e-016 -1.59028e-015 -0 5.05965 0.0217166 7.0364 -45.0578 5.08748 -15.5143 3.56384 -18.9371 0.955539 5.09209 0.923711 0.246092 -2.75903e-006 -6.32808e-007 8.28903e-007 2.7475e-006 2.09362e-007 -9.34999e-007 -2.80515e-006 -6.29891e-007 4.04518e-007 -2.75903e-006 -6.32808e-007 8.28903e-007 0.0129529 0.0023142 -8.6884e-005 4.83172e-006 9.81839e-007 6.60437e-008 -2.75903e-006 -6.32808e-007 8.28903e-007 0.016324 0.00303254 -0.000873946 -3.90426e-015 -7.95139e-016 3.97569e-016 -2.75903e-006 -6.32808e-007 8.28903e-007 0.0145775 0.00367751 -0.00326214 3.45636e-008 4.23452e-007 3.18291e-007 -2.75903e-006 -6.32808e-007 8.28903e-007 2.7475e-006 2.09362e-007 -9.34999e-007 -2.80515e-006 -6.29891e-007 4.04518e-007 -2.95777 -15.9193 -10.0147 -1.38658 33.7466 1.14339 7.73355 -17.2143 -1.75087 1.3418e-015 -1.98785e-016 1.59028e-015 3.73587 -15.799 10.1014 1.19105 33.5391 -1.05155 -8.31079 -16.9059 1.4711 -4.24411e-007 4.32763e-008 -5.82328e-009 
42.8002 62.7074 5.79022 -2.71553e-007 -0.253468 -1.33846e-007 -0.256556 4.45641 -0.154488 -0.50331 8.91345 -0.290212 -0.503311 8.91346 -0.290212 -5.02388e-006 -1.06073 -3.20329e-006 7.30924e-007 -0.659217 4.33864e-007 -8.59545 -0.208787 -12.5014 26.0988 2.95941 21.8526 -5.60617 -27.3913 -2.27457 -7.39331 1.35327 -0.142162 -6.35475e-008 3.6515e-010 -4.22028e-007 -6.35475e-008 3.65153e-010 -4.22028e-007 6.35475e-008 -3.65148e-010 4.22028e-007 -6.35475e-008 3.6515e-010 -4.22028e-007 -0.01272 0.00230951 8.53669e-005 -8.17282e-006 2.09365e-006 9.47122e-007 -6.35475e-008 3.6515e-010 -4.22028e-007 -0.0159954 0.00298842 0.000854032 1.2424e-016 -3.18055e-015 -0 -6.35475e-008 3.6515e-010 -4.22028e-007 -0.0124719 0.00309647 0.00280285 1.86361e-015 -8.44649e-007 1.98785e-016 -6.35475e-008 3.6515e-010 -4.22028e-007 -6.35475e-008 3.65153e-010 -4.22028e-007 6.35475e-008 -3.65148e-010 4.22028e-007 7.72604 -0.043218 7.03542 -25.9983 1.81388 -16.9537 5.43876 -27.4281 1.85744 7.38264 1.34583 0.329849 -9.44227e-016 3.18055e-015 -7.95139e-016 -3.28964e-006 -8.44123e-008 -5.78132e-007 3.39511e-006 9.34709e-007 1.42462e-006 -9.44227e-016 3.18055e-015 -7.95139e-016 0.0129376 0.00231518 -8.66896e-005 2.63616e-008 8.48267e-007 2.11623e-007 -9.44227e-016 3.18055e-015 -7.95139e-016 0.0163449 0.00303737 -0.000875356 1.05438e-007 2.03361e-009 8.46493e-007 -9.44227e-016 3.18055e-015 -7.95139e-016 0.0146069 0.00368311 -0.00326466 1.68967e-015 2.38542e-015 -3.97569e-016 -9.44227e-016 3.18055e-015 -7.95139e-016 -3.28964e-006 -8.44123e-008 -5.78132e-007 3.39511e-006 9.34709e-007 1.42462e-006 -7.65171 -22.536 -15.1123 -2.76509 47.5692 2.09593 12.5007 -23.535 -2.67759 -1.69036e-006 2.63997e-007 -2.28076e-008 8.77522 -22.3723 15.2292 2.43225 47.2889 -1.92359 -13.3945 -23.1014 2.2534 6.57079e-008 -2.51066e-008 1.59616e-006 
39.8484 63.0661 5.75931 -1.5456e-007 -0.977794 2.17147e-009 -0.23833 4.29611 -0.140113 -0.468073 8.59276 -0.263361 -0.468074 8.59278 -0.263362 6.63798e-007 -1.51447 3.15853e-007 1.34916e-007 -0.613748 -6.62065e-008 -8.00265 -0.194484 -12.5014 30.2464 4.06758 21.3943 -5.1459 -25.5108 -2.00806 -6.88346 1.25944 -0.13797 1.29079e-005 -2.49546e-006 1.13904e-007 3.59055e-015 -3.18055e-015 6.95746e-016 7.70929e-009 -8.44959e-007 5.28003e-008 1.29079e-005 -2.49546e-006 1.13904e-007 -0.0127513 0.00231379 8.42744e-005 1.3873e-007 -8.42415e-007 9.50412e-007 1.29079e-005 -2.49546e-006 1.13904e-007 -0.0160505 0.0029963 0.000857193 6.93595e-008 -8.43146e-007 4.75207e-007 1.29079e-005 -2.49546e-006 1.13904e-007 -0.0125391 0.00310955 0.00281765 -3.60297e-015 -1.59028e-015 6.95746e-016 1.29079e-005 -2.49546e-006 1.13904e-007 3.59055e-015 -3.18055e-015 6.95746e-016 7.70929e-009 -8.44959e-007 5.28003e-008 7.13352 -0.0288865 7.03565 -30.2219 2.57705 -16.6909 4.9981 -25.5434 1.62497 6.87366 1.2517 0.312701 8.81386e-008 -1.2613e-006 7.41629e-007 6.29562e-008 4.23804e-007 5.29735e-007 1.49089e-016 1.59028e-015 7.95139e-016 8.81386e-008 -1.2613e-006 7.41629e-007 0.0129581 0.00231729 -8.67247e-005 8.50445e-006 1.16836e-006 -5.17143e-007 8.81386e-008 -1.2613e-006 7.41629e-007 0.0163525 0.00303798 -0.000873557 1.71452e-015 -7.95139e-016 -0 8.81386e-008 -1.2613e-006 7.41629e-007 0.014593 0.00368143 -0.00326213 -5.98839e-015 -7.95139e-016 3.97569e-016 8.81386e-008 -1.2613e-006 7.41629e-007 6.29562e-008 4.23804e-007 5.29735e-007 1.49089e-016 1.59028e-015 7.95139e-016 -6.48215 -20.1486 -13.8748 -2.39874 44.5246 1.83787 11.4606 -22.141 -2.45648 -3.97569e-016 1.12647e-007 3.18055e-015 7.52209 -19.996 13.9734 2.10148 44.2603 -1.68786 -12.2806 -21.7347 2.0659 -4.8768e-008 1.68908e-008 -1.6142e-006 
